<?xml version="1.0" encoding="UTF-8"?>
<svg version="1.1" xmlns="http://www.w3.org/2000/svg" width="512" height="512">
<path d="M0 0 C1.78335431 0.27332056 3.56682017 0.54591406 5.35038757 0.81784058 C10.16772584 1.55439243 14.98344915 2.30104447 19.79893827 3.04957724 C24.85679817 3.8339936 29.91609961 4.60900049 34.97525024 5.38504028 C44.55814947 6.85644238 54.13973499 8.33622326 63.72087157 9.81905472 C74.57990345 11.49924703 85.44036215 13.17012255 96.30095553 14.84018683 C115.67643995 17.81979845 135.05109641 20.80476823 154.42370248 23.8030436 C155.93401904 24.03625314 157.44449821 24.26841245 158.95515227 24.49942565 C162.23489659 25.00190879 165.50833981 25.52104003 168.77934647 26.07873917 C182.44687241 28.37176121 194.58254987 26.86038483 208.13330078 24.70751953 C210.03811868 24.41121811 211.94305483 24.11567602 213.84809875 23.8208313 C217.93239295 23.18715106 222.01584122 22.54835343 226.09870911 21.9055481 C232.56174874 20.88824845 239.02673725 19.88374055 245.49206543 18.88110352 C259.21580835 16.75101548 272.93735484 14.60695159 286.65869141 12.46142578 C301.47459888 10.14474827 316.29086098 7.83050073 331.10966539 5.53241444 C337.52966355 4.53631751 343.94833616 3.5321843 350.3660965 2.52177429 C354.36574204 1.89377433 358.3664422 1.27270772 362.36745262 0.65346909 C364.21451742 0.36615137 366.06114256 0.0759897 367.90726662 -0.21731186 C392.51084378 -4.12223373 392.51084378 -4.12223373 397.82177734 -0.94580078 C399.57404948 2.20931304 399.61483821 4.3733515 399.54931641 7.97705078 C399.52998047 9.85263672 399.52998047 9.85263672 399.51025391 11.76611328 C399.45998047 13.71904297 399.45998047 13.71904297 399.40869141 15.71142578 C399.39064453 17.02884766 399.37259766 18.34626953 399.35400391 19.70361328 C399.30685412 22.95694886 399.24105184 26.20882203 399.15869141 29.46142578 C399.98594727 29.44047852 400.81320312 29.41953125 401.66552734 29.39794922 C405.41312511 29.31480959 409.1605289 29.26277047 412.90869141 29.21142578 C414.21064453 29.17791016 415.51259766 29.14439453 416.85400391 29.10986328 C418.10439453 29.09697266 419.35478516 29.08408203 420.64306641 29.07080078 C421.79516602 29.04985352 422.94726562 29.02890625 424.13427734 29.00732422 C427.94426675 29.57937623 428.85602647 30.40345618 431.15869141 33.46142578 C431.55089575 36.13356188 431.69679057 38.39366293 431.66205597 41.06396484 C431.66786973 41.83728024 431.6736835 42.61059563 431.67967343 43.40734482 C431.69434125 46.01422598 431.68035706 48.62017555 431.66662598 51.22705078 C431.67123222 53.10856612 431.67758327 54.99007786 431.68553495 56.87158203 C431.70228941 62.05403714 431.69395418 67.236199 431.68159008 72.4186554 C431.67256687 78.00291976 431.68649572 83.5871325 431.69750977 89.17138672 C431.71532881 100.11574626 431.71143994 111.0599963 431.6998592 122.0043602 C431.69083845 130.8963079 431.68959499 139.78822483 431.69395447 148.68017578 C431.6945674 149.94404366 431.69518033 151.20791153 431.69581184 152.51007843 C431.69709069 155.07732138 431.69838755 157.64456432 431.6997022 160.21180725 C431.71079227 183.6173204 431.6992768 207.02276319 431.67833181 230.42826271 C431.65934876 251.80393245 431.66104724 273.17950688 431.68017578 294.55517578 C431.70158491 318.55970788 431.71001919 342.56418039 431.69772673 366.56872559 C431.69645248 369.12670898 431.695195 371.68469237 431.69395447 374.24267578 C431.69302881 376.13071301 431.69302881 376.13071301 431.69208446 378.0568924 C431.68862571 386.94174984 431.69447121 395.82657356 431.70387268 404.71142578 C431.71507239 415.53395963 431.71209539 426.35637737 431.6907497 437.17889786 C431.68021196 442.70441328 431.67616376 448.22973489 431.68934631 453.75524902 C431.70121972 458.80832306 431.69479146 463.86102269 431.67343611 468.9140625 C431.66894853 470.74710722 431.67128425 472.58018323 431.68093926 474.41320801 C431.69301672 476.89555741 431.68071768 479.37660646 431.66205597 481.85888672 C431.67142063 482.5788168 431.6807853 483.29874687 431.69043374 484.04049301 C431.64267033 487.1960913 431.31567501 489.20988233 429.63362455 491.90512419 C426.16955872 494.08341784 423.0223839 494.01294493 419.05639648 493.96479034 C418.22905313 493.97060411 417.40170979 493.97641787 416.54929543 493.98240781 C413.75864625 493.99708242 410.96886638 493.98308799 408.17822266 493.96936035 C406.16471403 493.97396632 404.15120876 493.98031717 402.13771057 493.98826933 C396.59041154 494.00502755 391.04338638 493.99668682 385.49608612 493.98432446 C379.51918139 493.97530279 373.54232494 493.98922933 367.56542969 494.00024414 C356.52869072 494.01703395 345.49202744 494.01553512 334.45528793 494.00459827 C324.26022161 493.99454479 314.06518745 493.99190514 303.87011719 493.99668884 C303.19443542 493.99699438 302.51875365 493.99729992 301.82259667 493.99761472 C299.07993659 493.99886003 296.33727652 494.00013363 293.59461647 494.00145378 C267.85473116 494.01369587 242.11490173 494.00258629 216.37502503 493.98106619 C193.49559222 493.96208308 170.61624845 493.96378156 147.73681641 493.98291016 C122.04467909 494.00431843 96.35259117 494.01282775 70.66044617 494.0004611 C67.92271933 493.99917819 65.18499248 493.99792683 62.44726562 493.99668884 C61.77314388 493.99637253 61.09902214 493.99605622 60.40447247 493.99573033 C50.21462176 493.99117619 40.02480671 493.99650943 29.83496094 494.00660706 C18.25120457 494.01802859 6.66753298 494.01483175 -4.91621399 493.99348408 C-10.8305763 493.98294507 -16.74475753 493.97890032 -22.65911865 493.99208069 C-28.06746497 494.00395143 -33.47546139 493.9975302 -38.88377571 493.97617048 C-40.84602574 493.97168177 -42.808305 493.97402109 -44.77053642 493.98367363 C-47.42712256 493.99574495 -50.0824923 493.98345779 -52.73901367 493.96479034 C-53.89591737 493.97883734 -53.89591737 493.97883734 -55.07619286 493.99316812 C-58.36247679 493.94665165 -60.5110319 493.66911226 -63.31624174 491.90512419 C-65.3902346 488.58185148 -65.39408935 485.65787023 -65.34467316 481.85888672 C-65.35048692 481.08557133 -65.35630068 480.31225594 -65.36229062 479.51550674 C-65.37695843 476.90862559 -65.36297424 474.30267601 -65.34924316 471.69580078 C-65.35384941 469.81428545 -65.36020045 467.9327737 -65.36815214 466.05126953 C-65.3849066 460.86881442 -65.37657137 455.68665257 -65.36420727 450.50419617 C-65.35518406 444.9199318 -65.36911291 439.33571906 -65.38012695 433.75146484 C-65.397946 422.8071053 -65.39405713 411.86285526 -65.38247639 400.91849136 C-65.37345564 392.02654367 -65.37221217 383.13462674 -65.37657166 374.24267578 C-65.37718459 372.97880791 -65.37779752 371.71494003 -65.37842903 370.41277313 C-65.37970788 367.84553018 -65.38100473 365.27828724 -65.38231939 362.71104431 C-65.39340946 339.30553116 -65.38189399 315.90008837 -65.360949 292.49458885 C-65.34196595 271.11891911 -65.34366443 249.74334469 -65.36279297 228.36767578 C-65.3842021 204.36314369 -65.39263638 180.35867118 -65.38034391 156.35412598 C-65.37906967 153.79614259 -65.37781219 151.23815919 -65.37657166 148.68017578 C-65.37595455 147.4214843 -65.37533745 146.16279282 -65.37470165 144.86595917 C-65.37124289 135.98110172 -65.3770884 127.09627801 -65.38648987 118.21142578 C-65.39768957 107.38889194 -65.39471257 96.56647419 -65.37336689 85.7439537 C-65.36282915 80.21843829 -65.35878095 74.69311668 -65.3719635 69.16760254 C-65.38383691 64.1145285 -65.37740865 59.06182888 -65.35605329 54.00878906 C-65.35156571 52.17574435 -65.35390143 50.34266834 -65.36355644 48.50964355 C-65.3756339 46.02729415 -65.36333487 43.5462451 -65.34467316 41.06396484 C-65.35403782 40.34403477 -65.36340249 39.62410469 -65.37305093 38.88235855 C-65.32206383 35.5137805 -65.0497972 33.73830142 -62.99887419 31.01464844 C-60.01600072 28.86729001 -57.97461545 29.00445657 -54.32568359 29.07080078 C-53.07529297 29.08369141 -51.82490234 29.09658203 -50.53662109 29.10986328 C-48.58369141 29.16013672 -48.58369141 29.16013672 -46.59130859 29.21142578 C-45.27388672 29.22947266 -43.95646484 29.24751953 -42.59912109 29.26611328 C-39.34578552 29.31326307 -36.09391234 29.37906534 -32.84130859 29.46142578 C-32.86225586 28.63416992 -32.88320313 27.80691406 -32.90478516 26.95458984 C-32.98792479 23.20699208 -33.0399639 19.45958829 -33.09130859 15.71142578 C-33.14158203 13.75849609 -33.14158203 13.75849609 -33.19287109 11.76611328 C-33.20576172 10.51572266 -33.21865234 9.26533203 -33.23193359 7.97705078 C-33.25288086 6.82495117 -33.27382813 5.67285156 -33.29541016 4.48583984 C-32.84130859 1.46142578 -32.84130859 1.46142578 -31.50439453 -0.94580078 C-23.13714143 -5.95019748 -9.23598836 -1.44775057 0 0 Z M-16.84130859 15.46142578 C-16.84130859 157.69142578 -16.84130859 299.92142578 -16.84130859 446.46142578 C79.00191596 462.1148513 79.00191596 462.1148513 175.15869141 475.46142578 C175.15869141 333.23142578 175.15869141 191.00142578 175.15869141 44.46142578 C79.40620624 27.94385577 79.40620624 27.94385577 -16.84130859 15.46142578 Z M191.15869141 44.46142578 C191.15869141 186.69142578 191.15869141 328.92142578 191.15869141 475.46142578 C255.44127586 467.89876879 319.18965784 456.33093382 383.15869141 446.46142578 C383.15869141 304.23142578 383.15869141 162.00142578 383.15869141 15.46142578 C318.43277353 15.46142578 255.12801796 34.5938169 191.15869141 44.46142578 Z M-48.84130859 45.46142578 C-48.84130859 188.02142578 -48.84130859 330.58142578 -48.84130859 477.46142578 C-8.91130859 477.46142578 31.01869141 477.46142578 72.15869141 477.46142578 C72.15869141 477.13142578 72.15869141 476.80142578 72.15869141 476.46142578 C70.3337188 476.1862059 70.3337188 476.1862059 68.47187805 475.90542603 C57.00859343 474.17586642 45.54628822 472.43994333 34.0849123 470.6977787 C28.19242293 469.80231156 22.29961091 468.90909314 16.40600586 468.02099609 C10.7188306 467.16392123 5.03257663 466.30096279 -0.65308571 465.43391037 C-2.82288629 465.10408009 -4.99301091 464.77637438 -7.16345787 464.45082474 C-10.20238535 463.99463954 -13.24007501 463.53092764 -16.27758789 463.06542969 C-17.62518188 462.8658239 -17.62518188 462.8658239 -19 462.66218567 C-27.11882469 461.40293518 -27.11882469 461.40293518 -30.84130859 459.46142578 C-32.29370354 456.55663589 -31.97307444 454.02761388 -31.97997379 450.78097343 C-31.98281601 450.08305579 -31.98565823 449.38513814 -31.98858657 448.66607147 C-31.99697485 446.30397048 -31.998205 443.94191825 -31.99952698 441.57980347 C-32.00408952 439.87865841 -32.00908908 438.17751448 -32.01449054 436.47637188 C-32.02811613 431.78344464 -32.03550275 427.09052466 -32.0419172 422.39758277 C-32.0499018 417.3437106 -32.06360622 412.28985367 -32.07662964 407.23599243 C-32.09842 398.47374827 -32.1165551 389.71150259 -32.13223457 380.94924545 C-32.15490994 368.28036206 -32.18305596 355.6114955 -32.21255385 342.94262637 C-32.26025844 322.39014376 -32.30351483 301.83765427 -32.34399414 281.28515625 C-32.3833345 261.31574976 -32.42475721 241.34634939 -32.46899414 221.37695312 C-32.47171841 220.14683639 -32.47444268 218.91671966 -32.47724951 217.64932667 C-32.49092875 211.4784305 -32.50464907 205.30753443 -32.51838982 199.1366384 C-32.63239961 147.91158025 -32.73912521 96.68650878 -32.84130859 45.46142578 C-38.12130859 45.46142578 -43.40130859 45.46142578 -48.84130859 45.46142578 Z M399.15869141 45.46142578 C399.15630305 47.58199811 399.1539147 49.70257044 399.15145397 51.88740253 C399.09434575 102.18074097 399.0214477 152.4740375 398.92970512 202.76732515 C398.91843643 208.95222373 398.90729806 215.13712253 398.89624023 221.32202148 C398.89403655 222.55336784 398.89183287 223.78471419 398.88956241 225.05337407 C398.85415178 245.01350796 398.82930893 264.9736418 398.80834439 284.93379549 C398.78661228 305.40174981 398.75358664 325.86966322 398.70998985 346.33758277 C398.68342839 358.97606267 398.66576616 371.61449157 398.65934537 384.25299802 C398.65410519 392.90965678 398.63793461 401.56625127 398.61302575 410.22287563 C398.59896357 415.22366168 398.58985744 420.22433254 398.59368324 425.22513962 C398.59707559 429.79779066 398.58683281 434.37019502 398.56545589 438.94279548 C398.56015633 440.60231798 398.55998593 442.2618659 398.56529578 443.92138837 C398.57175291 446.16719995 398.55999615 448.41218341 398.54345226 450.65792561 C398.54155366 451.90834465 398.53965506 453.1587637 398.53769892 454.44707423 C398.15869141 457.46142578 398.15869141 457.46142578 396.82789642 459.33421057 C394.14135251 461.14843538 391.39293604 461.41457158 388.21728516 461.95288086 C387.51397568 462.07474416 386.8106662 462.19660746 386.08604431 462.32216358 C383.77910368 462.71655175 381.46959842 463.09102953 379.15869141 463.46142578 C378.38986633 463.58667507 377.62104126 463.71192436 376.82891846 463.84096909 C370.96472544 464.79328346 365.09366265 465.69854441 359.22119141 466.59814453 C357.36072362 466.88509419 355.50029131 467.172274 353.63989258 467.45967102 C348.80056096 468.20663834 343.96076161 468.95052941 339.12084961 469.69372559 C334.15921233 470.45618934 329.19803559 471.22163776 324.23681641 471.98681641 C314.5445502 473.4812331 304.85178598 474.97239219 295.15869141 476.46142578 C295.15869141 476.79142578 295.15869141 477.12142578 295.15869141 477.46142578 C334.75869141 477.46142578 374.35869141 477.46142578 415.15869141 477.46142578 C415.15869141 334.90142578 415.15869141 192.34142578 415.15869141 45.46142578 C409.87869141 45.46142578 404.59869141 45.46142578 399.15869141 45.46142578 Z " fill="#FFFFFF" transform="translate(72.84130859375,10.53857421875)"/>
<path d="M0 0 C3.83378025 0.06890981 7.65838785 0.04120133 11.49243164 0.00244141 C13.95275696 0.01623461 16.41305876 0.0355761 18.87329102 0.06103516 C20.00582809 0.05111542 21.13836517 0.04119568 22.30522156 0.03097534 C31.00756864 0.28655267 35.45569813 3.25532105 41.64282227 9.19384766 C42.7803251 10.15922215 43.92406552 11.11733973 45.07641602 12.06494141 C46.06770508 12.91185547 47.05899414 13.75876953 48.08032227 14.63134766 C52.06863148 18.02705432 56.07956039 21.38764185 60.14282227 24.69384766 C64.29496281 28.07887719 68.41885505 31.49477332 72.51782227 34.94384766 C73.05342773 35.39179688 73.5890332 35.83974609 74.14086914 36.30126953 C75.65658502 37.58116513 77.15009361 38.88721514 78.64282227 40.19384766 C79.50834717 40.85916504 80.37387207 41.52448242 81.265625 42.20996094 C84.68187797 46.49808292 84.5227765 50.1614898 84.62329102 55.51416016 C84.64941971 56.52743378 84.6755484 57.5407074 84.70246887 58.58468628 C84.74528681 60.73461033 84.77379736 62.88486004 84.7890625 65.03515625 C84.82964204 68.26471161 84.97145939 71.47930712 85.11743164 74.70556641 C85.47491907 90.1416978 81.57107881 98.84833626 71.34146118 110.27874756 C69.16286913 112.73496224 67.21384045 115.33248926 65.26782227 117.97509766 C64.06072199 119.54896081 62.85241736 121.12190109 61.64282227 122.69384766 C56.57463428 129.31201546 51.56844295 135.96891347 46.64282227 142.69384766 C41.06678449 150.3067942 35.37514213 157.82449964 29.63452148 165.31396484 C24.31207957 172.27278145 19.10821236 179.31335066 13.98266602 186.41845703 C13.16862305 187.53704102 13.16862305 187.53704102 12.33813477 188.67822266 C11.62681396 189.66387207 11.62681396 189.66387207 10.90112305 190.66943359 C8.71094472 193.32280446 7.35124743 193.22252715 3.83032227 193.56884766 C0.69748352 193.79911433 -0.19954636 193.3257433 -2.65405273 191.27197266 C-6.33155901 187.28712841 -9.53729851 182.89628382 -12.79467773 178.56884766 C-13.49915039 177.63878906 -14.20362305 176.70873047 -14.92944336 175.75048828 C-20.03285178 168.99638171 -25.06325268 162.19022713 -30.06591797 155.36132812 C-34.42804324 149.41907981 -38.87703875 143.54749517 -43.35717773 137.69384766 C-57.16376851 119.64738531 -57.16376851 119.64738531 -63.39868164 110.77832031 C-64.92876099 108.75919541 -66.46062227 106.99013772 -68.18676758 105.15234375 C-77.40101479 94.84152789 -77.90619546 85.30964428 -77.46166992 71.82910156 C-77.35620254 68.53842068 -77.33862412 65.25560559 -77.33374023 61.96337891 C-77.30494462 59.86043897 -77.27126944 57.7575589 -77.23217773 55.65478516 C-77.22347656 54.67770599 -77.21477539 53.70062683 -77.20581055 52.69393921 C-77.02753022 48.06422189 -76.90844095 45.88418234 -73.94555664 42.17382812 C-73.0913916 41.52043457 -72.23722656 40.86704102 -71.35717773 40.19384766 C-70.2240918 39.13423828 -70.2240918 39.13423828 -69.06811523 38.05322266 C-63.91893393 33.40346027 -58.6616131 28.93521592 -53.26733398 24.57275391 C-51.23471443 22.91118973 -49.22340904 21.23880589 -47.22827148 19.53369141 C-46.6879126 19.0720459 -46.14755371 18.61040039 -45.59082031 18.13476562 C-44.08640412 16.84565744 -42.58495986 15.55308321 -41.08374023 14.26025391 C-40.51534424 13.81166016 -39.94694824 13.36306641 -39.36132812 12.90087891 C-37.21739304 11.14634317 -37.21739304 11.14634317 -35.03857422 8.65869141 C-24.9274062 -1.12580409 -13.45261656 -0.26816997 0 0 Z M-13.35717773 17.19384766 C-15.00717773 25.11384766 -16.65717773 33.03384766 -18.35717773 41.19384766 C-3.83717773 41.19384766 10.68282227 41.19384766 25.64282227 41.19384766 C23.99282227 33.27384766 22.34282227 25.35384766 20.64282227 17.19384766 C9.42282227 17.19384766 -1.79717773 17.19384766 -13.35717773 17.19384766 Z M-39.98217773 36.13134766 C-40.79944336 36.86224609 -41.61670898 37.59314453 -42.45874023 38.34619141 C-43.08522461 38.95591797 -43.71170898 39.56564453 -44.35717773 40.19384766 C-44.35717773 40.52384766 -44.35717773 40.85384766 -44.35717773 41.19384766 C-41.38717773 41.19384766 -38.41717773 41.19384766 -35.35717773 41.19384766 C-34.69717773 38.22384766 -34.03717773 35.25384766 -33.35717773 32.19384766 C-36.45596746 32.19384766 -37.72982715 34.09708181 -39.98217773 36.13134766 Z M40.64282227 32.19384766 C41.30282227 35.16384766 41.96282227 38.13384766 42.64282227 41.19384766 C45.61282227 41.19384766 48.58282227 41.19384766 51.64282227 41.19384766 C50.90032227 40.45134766 50.15782227 39.70884766 49.39282227 38.94384766 C47.7260254 37.27705079 46.07519439 35.5937839 44.45532227 33.88134766 C42.81159954 31.96670815 42.81159954 31.96670815 40.64282227 32.19384766 Z M-60.35717773 57.19384766 C-60.35717773 65.11384766 -60.35717773 73.03384766 -60.35717773 81.19384766 C-52.43717773 81.19384766 -44.51717773 81.19384766 -36.35717773 81.19384766 C-36.35717773 73.27384766 -36.35717773 65.35384766 -36.35717773 57.19384766 C-44.27717773 57.19384766 -52.19717773 57.19384766 -60.35717773 57.19384766 Z M-20.35717773 57.19384766 C-20.35717773 65.11384766 -20.35717773 73.03384766 -20.35717773 81.19384766 C-4.51717773 81.19384766 11.32282227 81.19384766 27.64282227 81.19384766 C27.64282227 73.27384766 27.64282227 65.35384766 27.64282227 57.19384766 C11.80282227 57.19384766 -4.03717773 57.19384766 -20.35717773 57.19384766 Z M43.64282227 57.19384766 C43.64282227 65.11384766 43.64282227 73.03384766 43.64282227 81.19384766 C51.56282227 81.19384766 59.48282227 81.19384766 67.64282227 81.19384766 C67.64282227 73.27384766 67.64282227 65.35384766 67.64282227 57.19384766 C59.72282227 57.19384766 51.80282227 57.19384766 43.64282227 57.19384766 Z M-51.35717773 97.19384766 C-46.96182306 103.94483772 -42.27265297 110.37639343 -37.35717773 116.75634766 C-35.98190823 118.54910969 -34.60690419 120.34207541 -33.23217773 122.13525391 C-32.2537793 123.40973389 -32.2537793 123.40973389 -31.25561523 124.70996094 C-28.59850804 128.18647953 -25.97273577 131.6860029 -23.35717773 135.19384766 C-21.98342517 133.00605059 -21.98342517 133.00605059 -23.34521484 129.66210938 C-23.85062767 128.14666512 -24.36432464 126.63396843 -24.88452148 125.12353516 C-25.15228897 124.32730743 -25.42005646 123.53107971 -25.69593811 122.71072388 C-26.55519418 120.16100732 -27.42480067 117.61495792 -28.29467773 115.06884766 C-28.87804366 113.34381828 -29.4607348 111.61856054 -30.04272461 109.89306641 C-31.47179667 105.6568157 -32.9147969 101.42567866 -34.35717773 97.19384766 C-39.96717773 97.19384766 -45.57717773 97.19384766 -51.35717773 97.19384766 Z M-16.35717773 97.19384766 C-14.10634764 105.58757666 -14.10634764 105.58757666 -11.54785156 113.84887695 C-11.22774612 114.80904221 -10.90764069 115.76920746 -10.57783508 116.75846863 C-10.24333847 117.75163589 -9.90884186 118.74480316 -9.56420898 119.76806641 C-9.21331711 120.81791214 -8.86242523 121.86775787 -8.50090027 122.94941711 C-7.39333803 126.26102127 -6.28158435 129.57119997 -5.16967773 132.88134766 C-4.41223721 135.14362403 -3.65507317 137.405993 -2.89819336 139.66845703 C-1.05438034 145.17799409 0.79286428 150.68637108 2.64282227 156.19384766 C3.30282227 156.19384766 3.96282227 156.19384766 4.64282227 156.19384766 C7.12363756 148.79768876 9.60123487 141.40046057 12.0746994 134.00184059 C13.22325918 130.56661009 14.37293516 127.13176154 15.52514648 123.69775391 C16.63650514 120.38536693 17.74495197 117.07201888 18.85136414 113.75797653 C19.48086952 111.87496848 20.11340702 109.99297498 20.74597168 108.11099243 C21.12636597 106.96996063 21.50676025 105.82892883 21.89868164 104.65332031 C22.40498108 103.14108383 22.40498108 103.14108383 22.92150879 101.59829712 C23.73860229 99.29295691 23.73860229 99.29295691 23.64282227 97.19384766 C10.44282227 97.19384766 -2.75717773 97.19384766 -16.35717773 97.19384766 Z M41.64282227 97.19384766 C39.90857193 102.28200063 38.17894892 107.37125176 36.4609375 112.46484375 C35.87476288 114.19817852 35.28590256 115.93060741 34.69433594 117.66210938 C33.84591155 120.14693319 33.00710744 122.63482388 32.17016602 125.12353516 C31.90251938 125.90066864 31.63487274 126.67780212 31.3591156 127.47848511 C30.72978941 129.36547474 30.1787336 131.27823278 29.64282227 133.19384766 C29.97282227 133.85384766 30.30282227 134.51384766 30.64282227 135.19384766 C38.06119574 125.76668633 45.39091088 116.2814111 52.51782227 106.63134766 C53.13028809 105.80465576 53.74275391 104.97796387 54.3737793 104.1262207 C54.93436035 103.36349854 55.49494141 102.60077637 56.07250977 101.81494141 C56.56992676 101.13874756 57.06734375 100.46255371 57.57983398 99.76586914 C58.73618077 98.37206284 58.73618077 98.37206284 58.64282227 97.19384766 C53.03282227 97.19384766 47.42282227 97.19384766 41.64282227 97.19384766 Z " fill="#FFFFFF" transform="translate(356.357177734375,182.80615234375)"/>
<path d="M0 0 C3.0962892 1.89813248 5.47280287 4.41073136 8 7 C8.96941206 7.94990272 9.94089127 8.8976989 10.9140625 9.84375 C19.92787891 18.6718043 19.92787891 18.6718043 20.12025452 22.21463013 C20.11803391 23.13396332 20.11581329 24.05329651 20.11352539 25.00048828 C20.11341209 26.56188034 20.11341209 26.56188034 20.11329651 28.15481567 C20.10813522 29.28192963 20.10297394 30.40904358 20.09765625 31.5703125 C20.0962413 32.72167694 20.09482635 33.87304138 20.09336853 35.05929565 C20.08775716 38.74788986 20.0752027 42.43642405 20.0625 46.125 C20.05748647 48.62109288 20.05292331 51.1171867 20.04882812 53.61328125 C20.03778403 59.74220809 20.0210348 65.87109976 20 72 C21.66482422 71.98163086 21.66482422 71.98163086 23.36328125 71.96289062 C29.07498428 72.02117331 32.84755084 73.97838598 36.9921875 77.87109375 C43.32168411 84.81778194 44.48068378 90.18777415 44.3046875 99.5546875 C43.69427648 106.45702746 41.07439822 110.24207329 36.0625 114.875 C30.37363649 119.48276952 27.6231861 120 20 120 C20 128.25 20 136.5 20 145 C20.66 144.67 21.32 144.34 22 144 C31.77820168 143.2003807 39.6253071 143.31184225 48 149 C48.9075 149.556875 49.815 150.11375 50.75 150.6875 C55.85080934 155.92999848 60.15046859 162.78392881 60.09765625 170.23046875 C60.09443359 171.03291016 60.09121094 171.83535156 60.08789062 172.66210938 C60.07951172 173.49548828 60.07113281 174.32886719 60.0625 175.1875 C60.05798828 176.03248047 60.05347656 176.87746094 60.04882812 177.74804688 C60.03705403 179.83206155 60.0191189 181.91603977 60 184 C65.28 184 70.56 184 76 184 C76 189.28 76 194.56 76 200 C74.63746094 199.92136719 73.27492187 199.84273437 71.87109375 199.76171875 C63.84792351 199.54728534 63.84792351 199.54728534 56 201 C52.25304254 204.75265192 50.91281009 209.12314707 49 214 C47.27734375 216.640625 47.27734375 216.640625 45.25 219.125 C44.51265625 220.05183594 43.7753125 220.97867188 43.015625 221.93359375 C40.68925983 224.53181707 38.13778111 226.30260747 35.234375 228.22265625 C28.69020673 232.95146068 22.08952709 238.05090854 20.56237793 246.38952637 C19.81683596 254.31482541 20.21209205 262.2885427 20.48309326 270.23013306 C20.96488066 286.06466554 19.29197374 297.89228662 11.625 311.875 C11.23125183 312.59632111 10.83750366 313.31764221 10.43182373 314.06082153 C4.2395771 325.17361526 4.2395771 325.17361526 0 328 C-5.63181818 328.53636364 -5.63181818 328.53636364 -8 328 C-13.37713516 323.2325426 -16.76354585 316.97531121 -20.1875 310.75 C-20.56236542 310.07204376 -20.93723083 309.39408752 -21.32345581 308.69558716 C-28.64340107 294.948315 -28.66382398 282.72096655 -28.0625 267.4375 C-27.12351503 249.61650557 -27.12351503 249.61650557 -35.37129211 234.51445007 C-39.619778 230.24184861 -44.40648732 226.69404267 -49.29370117 223.18603516 C-56.37424272 217.46666943 -60.19381349 209.07372895 -64 201 C-73.9 200.505 -73.9 200.505 -84 200 C-84 194.72 -84 189.44 -84 184 C-78.72 184 -73.44 184 -68 184 C-68.06960937 182.83984375 -68.13921875 181.6796875 -68.2109375 180.484375 C-68.63368427 170.45570282 -68.36425232 162.32047742 -62 154 C-56.55721674 148.49805605 -49.82936884 143.96101982 -41.88671875 143.671875 C-40.48677599 143.68233209 -39.08686654 143.70849886 -37.6875 143.75 C-36.61532227 143.75773437 -36.61532227 143.75773437 -35.52148438 143.765625 C-30.31161929 143.84419035 -30.31161929 143.84419035 -28 145 C-28 136.75 -28 128.5 -28 120 C-30.31 120 -32.62 120 -35 120 C-41.58594643 118.21238597 -46.21276784 113.49660452 -50 108 C-53.23701739 101.56912546 -53.12389015 93.45288124 -51.3828125 86.5546875 C-48.62281109 80.32636574 -43.28930952 75.84522241 -37.4375 72.5625 C-34.26520882 71.8304328 -31.24588934 71.96591248 -28 72 C-28.02331642 71.0494574 -28.02331642 71.0494574 -28.04710388 70.07971191 C-28.20243658 63.46097552 -28.30773741 56.84275992 -28.38452148 50.22265625 C-28.41963971 47.75499426 -28.46734647 45.28747705 -28.52807617 42.8203125 C-28.61336874 39.26526111 -28.65277691 35.71214082 -28.68359375 32.15625 C-28.71972275 31.06010376 -28.75585175 29.96395752 -28.79307556 28.83459473 C-28.79593866 23.20023432 -28.40873045 19.77982943 -24.64599609 15.43725586 C-23.45299285 14.26827222 -22.23855577 13.12060657 -21 12 C-19.98868349 10.95384353 -18.98184871 9.9033279 -17.98046875 8.84765625 C-16.59794922 7.46900391 -16.59794922 7.46900391 -15.1875 6.0625 C-14.71119141 5.58232422 -14.23488281 5.10214844 -13.74414062 4.60742188 C-9.48573055 0.36099045 -6.09713636 -1.26707807 0 0 Z M-8.58227539 23.85571289 C-12.21885292 27.61864683 -12.79616055 30.36466041 -12.79307556 35.50157166 C-12.75694656 36.42788895 -12.72081757 37.35420624 -12.68359375 38.30859375 C-12.67368912 39.27531509 -12.66378448 40.24203644 -12.65357971 41.23805237 C-12.61459573 44.30612088 -12.52680599 47.37052519 -12.4375 50.4375 C-12.40236537 52.52533871 -12.37043014 54.61323388 -12.34179688 56.70117188 C-12.2648861 61.8021791 -12.14421569 66.90046979 -12 72 C-6.72 72 -1.44 72 4 72 C4.17358258 65.8620435 4.30032189 59.72552784 4.38452148 53.58569336 C4.41963386 51.49917706 4.46733689 49.41283189 4.52807617 47.3269043 C4.6134035 44.32037086 4.65277985 41.31612078 4.68359375 38.30859375 C4.73778725 36.91911781 4.73778725 36.91911781 4.79307556 35.50157166 C4.79616055 30.36466041 4.21885292 27.61864683 0.58227539 23.85571289 C-3.2810219 20.38880882 -4.7189781 20.38880882 -8.58227539 23.85571289 Z M-34 91 C-35.42041821 93.84083641 -35.31452272 95.85477278 -35 99 C-32.76793569 101.84780619 -31.45007001 102.84997666 -28 104 C-26.45185493 104.10147433 -24.89980303 104.14833858 -23.34838867 104.16113281 C-22.40698532 104.17074036 -21.46558197 104.1803479 -20.49565125 104.19024658 C-19.48001602 104.19449646 -18.4643808 104.19874634 -17.41796875 104.203125 C-15.84756584 104.21167511 -15.84756584 104.21167511 -14.24543762 104.22039795 C-12.02878836 104.22984766 -9.81212504 104.23638182 -7.59545898 104.24023438 C-4.2111751 104.24993216 -0.82750051 104.28095313 2.55664062 104.3125 C4.7109339 104.31903098 6.86523151 104.32428108 9.01953125 104.328125 C10.53387505 104.3466452 10.53387505 104.3466452 12.07881165 104.36553955 C17.4542413 104.34857365 21.39186364 104.11154548 26 101 C27.42041821 98.15916359 27.31452272 96.14522722 27 93 C24.76793569 90.15219381 23.45007001 89.15002334 20 88 C18.45185493 87.89852567 16.89980303 87.85166142 15.34838867 87.83886719 C13.93628365 87.82445587 13.93628365 87.82445587 12.49565125 87.80975342 C11.48001602 87.80550354 10.4643808 87.80125366 9.41796875 87.796875 C7.84756584 87.78832489 7.84756584 87.78832489 6.24543762 87.77960205 C4.02878836 87.77015234 1.81212504 87.76361818 -0.40454102 87.75976562 C-3.7888249 87.75006784 -7.17249949 87.71904687 -10.55664062 87.6875 C-12.7109339 87.68096902 -14.86523151 87.67571892 -17.01953125 87.671875 C-18.02909378 87.6595282 -19.03865631 87.6471814 -20.07881165 87.63446045 C-25.4542413 87.65142635 -29.39186364 87.88845452 -34 91 Z M-12 120 C-12.16134323 125.0016401 -12.30042302 129.99416142 -12.38452148 134.99633789 C-12.4195882 136.69489217 -12.46725799 138.39323718 -12.52807617 140.09106445 C-13.19181798 149.75402964 -13.19181798 149.75402964 -10.41064453 158.71435547 C-8.68976744 160.43523256 -7.09795738 161.77785282 -5 163 C-1.12112857 161.41971905 1.41207352 159.28830954 4 156 C4.43857267 153.00808557 4.58901776 150.60985115 4.48828125 147.63671875 C4.48120651 146.84473587 4.47413177 146.05275299 4.46684265 145.23677063 C4.43896244 142.71936611 4.376242 140.20422644 4.3125 137.6875 C4.28740861 135.9759437 4.26459691 134.26435235 4.24414062 132.55273438 C4.19341585 128.36692574 4.09557037 124.18598225 4 120 C-1.28 120 -6.56 120 -12 120 Z M-48 165 C-52.48373887 171.03539075 -51.62593526 177.86576061 -51 185 C-47.42157546 202.78562197 -34.46274714 214.04859617 -22.0625 226.1875 C-20.40727478 227.82262849 -18.75296943 229.4586887 -17.09960938 231.09570312 C-13.07695747 235.07461517 -9.0430695 239.04184204 -5 243 C-2.00115855 241.65040204 0.12145786 240.14151543 2.46411133 237.84228516 C3.12192093 237.20046295 3.77973053 236.55864075 4.45747375 235.89736938 C5.15857773 235.20162811 5.8596817 234.50588684 6.58203125 233.7890625 C7.31443527 233.06568695 8.04683929 232.3423114 8.80143738 231.59701538 C10.35155438 230.06140396 11.89887618 228.52296656 13.44360352 226.98193359 C15.78136424 224.65597852 18.13709676 222.34935804 20.49414062 220.04296875 C34.65318637 206.03731747 43.17564036 193.93918769 43.49609375 173.515625 C42.79283333 168.53188974 40.61151996 165.42192937 36.875 162.125 C32.47647609 160.40383847 28.6442284 160.05249127 24 161 C20.78734648 162.79129772 18.51503908 165.34291553 16 168 C14.18999232 169.82371188 12.3701606 171.63730401 10.54980469 173.45068359 C9.27635569 174.72380954 8.00865961 176.00271849 6.74707031 177.28759766 C5.87066895 178.17777588 5.87066895 178.17777588 4.9765625 179.0859375 C4.45143066 179.6226709 3.92629883 180.1594043 3.38525391 180.71240234 C0.64893875 183.25581548 -2.12877158 183.53740571 -5.8125 183.4453125 C-10.27397243 182.53708418 -12.92237506 179.16214776 -16 176 C-17.79862687 174.17980434 -19.60097681 172.36340673 -21.40576172 170.54931641 C-22.66595703 169.27750341 -23.91905574 167.99861486 -25.16455078 166.71240234 C-25.74575684 166.1189502 -26.32696289 165.52549805 -26.92578125 164.9140625 C-27.44567627 164.3773291 -27.96557129 163.8405957 -28.5012207 163.28759766 C-31.75848984 160.48928565 -35.64073092 160.66575341 -39.71484375 160.71875 C-43.29592389 161.15949833 -45.33039485 162.64820499 -48 165 Z M-12 261 C-13.19548604 281.61158155 -13.19548604 281.61158155 -5 300 C-4.34 300 -3.68 300 -3 300 C5.61354612 287.71690744 4.77742595 275.50625565 4 261 C3.071875 261.48678223 3.071875 261.48678223 2.125 261.98339844 C-0.13100255 263.06267172 -1.52284952 263.26935274 -4 263.25 C-4.66 263.25515625 -5.32 263.2603125 -6 263.265625 C-8.32626923 262.95666737 -9.93450891 262.08330704 -12 261 Z " fill="#FFFFFF" transform="translate(156,80)"/>
<path d="M0 0 C5.00099548 2.65848126 9.7045025 5.25876024 14 9 C11.96560054 14.48996705 8.89194139 18.98764493 5.625 23.8125 C4.75875 25.13797852 4.75875 25.13797852 3.875 26.49023438 C3.31039062 27.32490234 2.74578125 28.15957031 2.1640625 29.01953125 C1.65311035 29.78370361 1.1421582 30.54787598 0.61572266 31.33520508 C-0.18406006 32.15927856 -0.18406006 32.15927856 -1 33 C-5.62589639 33 -6.97485851 32.016761 -10.75 29.5 C-11.73484375 28.8503125 -12.7196875 28.200625 -13.734375 27.53125 C-14.48203125 27.0259375 -15.2296875 26.520625 -16 26 C-15.3585301 22.44056164 -13.88670897 20.03366979 -11.875 17.05078125 C-11.25109375 16.12072266 -10.6271875 15.19066406 -9.984375 14.23242188 C-9.32953125 13.26884766 -8.6746875 12.30527344 -8 11.3125 C-7.34515625 10.33732422 -6.6903125 9.36214844 -6.015625 8.35742188 C-1.18223614 1.18223614 -1.18223614 1.18223614 0 0 Z " fill="#FFFFFF" transform="translate(89,307)"/>
<path d="M0 0 C4.64747695 4.23360145 7.89925748 9.05784839 11.3125 14.3125 C12.13717773 15.56643555 12.13717773 15.56643555 12.97851562 16.84570312 C14.32435457 18.89371891 15.66464405 20.9451401 17 23 C15.20092182 27.03874694 13.17561651 28.45195281 9.375 30.75 C8.37210938 31.36359375 7.36921875 31.9771875 6.3359375 32.609375 C5.17964844 33.29773438 5.17964844 33.29773438 4 34 C-0.64747695 29.76639855 -3.89925748 24.94215161 -7.3125 19.6875 C-7.86228516 18.85154297 -8.41207031 18.01558594 -8.97851562 17.15429688 C-10.32435457 15.10628109 -11.66464405 13.0548599 -13 11 C-11.20092182 6.96125306 -9.17561651 5.54804719 -5.375 3.25 C-4.37210938 2.63640625 -3.36921875 2.0228125 -2.3359375 1.390625 C-1.17964844 0.70226562 -1.17964844 0.70226562 0 0 Z " fill="#FFFFFF" transform="translate(214,307)"/>
<path d="M0 0 C5.00099548 2.65848126 9.7045025 5.25876024 14 9 C12.69812171 12.53567665 11.15440964 15.50074386 9.03125 18.609375 C8.46019531 19.44597656 7.88914063 20.28257812 7.30078125 21.14453125 C6.70652344 22.00433594 6.11226562 22.86414063 5.5 23.75 C4.90574219 24.62527344 4.31148437 25.50054687 3.69921875 26.40234375 C-0.74442887 32.87221443 -0.74442887 32.87221443 -3 34 C-5.010684 32.76725921 -7.00833222 31.51323373 -9 30.25 C-10.11375 29.55390625 -11.2275 28.8578125 -12.375 28.140625 C-13.24125 27.43421875 -14.1075 26.7278125 -15 26 C-15 21.56352976 -14.38878935 20.6009971 -11.97265625 17.05078125 C-11.34552734 16.12072266 -10.71839844 15.19066406 -10.07226562 14.23242188 C-9.40904297 13.26884766 -8.74582031 12.30527344 -8.0625 11.3125 C-7.40314453 10.33732422 -6.74378906 9.36214844 -6.06445312 8.35742188 C-1.2253957 1.2253957 -1.2253957 1.2253957 0 0 Z " fill="#FFFFFF" transform="translate(217,187)"/>
<path d="M0 0 C4.64747695 4.23360145 7.89925748 9.05784839 11.3125 14.3125 C12.13717773 15.56643555 12.13717773 15.56643555 12.97851562 16.84570312 C14.32435457 18.89371891 15.66464405 20.9451401 17 23 C15.20092182 27.03874694 13.17561651 28.45195281 9.375 30.75 C8.37210938 31.36359375 7.36921875 31.9771875 6.3359375 32.609375 C5.17964844 33.29773438 5.17964844 33.29773438 4 34 C-0.64747695 29.76639855 -3.89925748 24.94215161 -7.3125 19.6875 C-7.86228516 18.85154297 -8.41207031 18.01558594 -8.97851562 17.15429688 C-10.32435457 15.10628109 -11.66464405 13.0548599 -13 11 C-11.20092182 6.96125306 -9.17561651 5.54804719 -5.375 3.25 C-4.37210938 2.63640625 -3.36921875 2.0228125 -2.3359375 1.390625 C-1.17964844 0.70226562 -1.17964844 0.70226562 0 0 Z " fill="#FFFFFF" transform="translate(86,187)"/>
</svg>
